<svg width="1080" height="1920" viewBox="0 0 1080 1920" fill="none" xmlns="http://www.w3.org/2000/svg">
  <defs>
    <linearGradient id="sky" x1="540" y1="0" x2="540" y2="1920" gradientUnits="userSpaceOnUse">
      <stop stop-color="#d7e8ff"/>
      <stop offset="0.45" stop-color="#b8d2f5"/>
      <stop offset="1" stop-color="#9fb9de"/>
    </linearGradient>
    <radialGradient id="halo" cx="0" cy="0" r="1" gradientUnits="userSpaceOnUse" gradientTransform="translate(540 900) rotate(90) scale(700 520)">
      <stop stop-color="#ffffff" stop-opacity="0.75"/>
      <stop offset="1" stop-color="#ffffff" stop-opacity="0"/>
    </radialGradient>
    <filter id="blurA" x="95" y="245" width="890" height="1040" filterUnits="userSpaceOnUse" color-interpolation-filters="sRGB">
      <feGaussianBlur stdDeviation="18"/>
    </filter>
    <filter id="blurB" x="95" y="905" width="890" height="720" filterUnits="userSpaceOnUse" color-interpolation-filters="sRGB">
      <feGaussianBlur stdDeviation="16"/>
    </filter>
  </defs>

  <rect width="1080" height="1920" fill="url(#sky)"/>
  <rect width="1080" height="1920" fill="url(#halo)"/>

  <g filter="url(#blurA)">
    <path d="M230 1040L535 760L845 1045L540 1260L230 1040Z" fill="#d0b67f" fill-opacity="0.5"/>
    <path d="M360 960L535 840L715 960L535 1078L360 960Z" fill="#ffffff" fill-opacity="0.54"/>
    <rect x="428" y="760" width="220" height="224" rx="18" fill="#f7efe1" fill-opacity="0.58"/>
    <rect x="368" y="900" width="84" height="162" rx="20" fill="#f4e4cd" fill-opacity="0.62"/>
    <rect x="628" y="900" width="84" height="162" rx="20" fill="#f4e4cd" fill-opacity="0.62"/>
    <rect x="300" y="980" width="68" height="138" rx="18" fill="#f2dcc1" fill-opacity="0.62"/>
    <rect x="712" y="980" width="68" height="138" rx="18" fill="#f2dcc1" fill-opacity="0.62"/>
    <rect x="498" y="694" width="82" height="112" rx="14" fill="#f5ead7" fill-opacity="0.66"/>
  </g>

  <g filter="url(#blurB)">
    <circle cx="260" cy="1480" r="120" fill="#4f915f" fill-opacity="0.36"/>
    <circle cx="820" cy="1500" r="126" fill="#4f915f" fill-opacity="0.36"/>
    <circle cx="520" cy="1540" r="168" fill="#6ca16a" fill-opacity="0.24"/>
  </g>

  <rect width="1080" height="1920" fill="#ffffff" fill-opacity="0.06"/>
</svg>

